{"title":"Gun Hill Road 2011 DVDRip XViD juggs","uid":8208911,"size":743793775,"categoryP":"video","categoryS":"movies","magnet":"?xt=urn:btih:e29a56792628c97749b953ed168255540b856410&amp;dn=Gun+Hill+Road+2011+DVDRip+XViD+juggs&amp;tr=udp%3A%2F%2Ftracker.openbittorrent.com%3A80&amp;tr=udp%3A%2F%2Fopen.demonii.com%3A1337&amp;tr=udp%3A%2F%2Ftracker.coppersurfer.tk%3A6969&amp;tr=udp%3A%2F%2Fexodus.desync.com%3A6969","seeders":0,"leechers":1,"uploader":"juggs99","files":3,"time":1362185638,"description":"Source : DVDR-AN0NYM0US\n &lt;a href=&quot;\nhttp://www.imdb.com/title/tt1525838/&quot; rel=&quot;nofollow&quot; target=&quot;_NEW&quot;&gt;\nhttp://www.imdb.com/title/tt1525838/&lt;/a&gt;\n\nFormat                                   : AVI\nFormat/Info                              : Audio Video Interleave\nFile size                                : 703 MiB\nDuration                                 : 1h 26mn\nOverall bit rate                         : 1 135 Kbps\nWriting library                          : VirtualDub build 32842/release\n\nVideo\nID                                       : 0\nFormat                                   : MPEG-4 Visual\nFormat profile                           : Advanced Simple@L5\nFormat settings, BVOP                    : 4\nFormat settings, QPel                    : No\nFormat settings, GMC                     : No warppoints\nFormat settings, Matrix                  : Default (H.263)\nMuxing mode                              : Packed bitstream\nCodec ID                                 : XVID\nCodec ID/Hint                            : XviD\nDuration                                 : 1h 26mn\nBit rate                                 : 997 Kbps\nWidth                                    : 640 pixels\nHeight                                   : 352 pixels\nDisplay aspect ratio                     : 16:9\nFrame rate                               : 23.976 fps\nColor space                              : YUV\nChroma subsampling                       : 4:2:0\nBit depth                                : 8 bits\nScan type                                : Progressive\nCompression mode                         : Lossy\nBits/(Pixel*Frame)                       : 0.185\nStream size                              : 618 MiB (88%)\nWriting library                          : XviD 64\n\nAudio\nID                                       : 1\nFormat                                   : MPEG Audio\nFormat version                           : Version 1\nFormat profile                           : Layer 3\nCodec ID                                 : 55\nCodec ID/Hint                            : MP3\nDuration                                 : 1h 26mn\nBit rate mode                            : Constant\nBit rate                                 : 128 Kbps\nChannel(s)                               : 2 channels\nSampling rate                            : 44.1 KHz\nCompression mode                         : Lossy\nStream size                              : 79.3 MiB (11%)\nAlignment                                : Split accross interleaves\nInterleave, duration                     : 42 ms (1.00 video frame)\nInterleave, preload duration             : 500 ms\nWriting library                          : LAME3.99r\nEncoding settings                        : -m s -V 4 -q 3 -lowpass 17 -b 128\n\n\nPlot\nAn ex-con returns home to the Bronx after three year in prison to discover his wife estranged and his teenage son exploring a sexual transformation that will put the fragile bonds of their family to the test. \n\n &lt;a href=&quot;\nhttp://www.shotpix.com/images/67143379593637777534.png&quot; rel=&quot;nofollow&quot; target=&quot;_NEW&quot;&gt;\nhttp://www.shotpix.com/images/67143379593637777534.png&lt;/a&gt; &lt;a href=&quot;\nhttp://www.shotpix.com/images/24246215409129556957.png&quot; rel=&quot;nofollow&quot; target=&quot;_NEW&quot;&gt;\nhttp://www.shotpix.com/images/24246215409129556957.png&lt;/a&gt; &lt;a href=&quot;\nhttp://www.shotpix.com/images/39457371025243588627.png&quot; rel=&quot;nofollow&quot; target=&quot;_NEW&quot;&gt;\nhttp://www.shotpix.com/images/39457371025243588627.png&lt;/a&gt; &lt;a href=&quot;\nhttp://www.shotpix.com/images/04650939833353867324.png&quot; rel=&quot;nofollow&quot; target=&quot;_NEW&quot;&gt;\nhttp://www.shotpix.com/images/04650939833353867324.png&lt;/a&gt;","torrent":{"xt":"urn:btih:e29a56792628c97749b953ed168255540b856410","amp;dn":"Gun+Hill+Road+2011+DVDRip+XViD+juggs","amp;tr":["udp%3A%2F%2Ftracker.openbittorrent.com%3A80","udp%3A%2F%2Fopen.demonii.com%3A1337","udp%3A%2F%2Ftracker.coppersurfer.tk%3A6969","udp%3A%2F%2Fexodus.desync.com%3A6969"],"infoHash":"e29a56792628c97749b953ed168255540b856410","infoHashBuffer":{"type":"Buffer","data":[226,154,86,121,38,40,201,119,73,185,83,237,22,130,85,84,11,133,100,16]},"announce":[],"urlList":[]}}